<svg xmlns="http://www.w3.org/2000/svg" width="57.95" height="50.933" viewBox="0 0 57.95 50.933"><g transform="translate(0 0)"><g transform="translate(0 0)"><path d="M18.671,64.956H49.462a1.7,1.7,0,0,0,1.632-1.231l6.791-23.769a1.7,1.7,0,0,0-1.632-2.164h-41.5l-1.214-5.462A1.7,1.7,0,0,0,11.884,31H1.7a1.7,1.7,0,1,0,0,3.4h8.825c.215.968,5.808,26.136,6.13,27.584a5.093,5.093,0,0,0,2.023,9.767H49.462a1.7,1.7,0,1,0,0-3.4H18.675a1.7,1.7,0,0,1,0-3.4ZM54,41.187,48.181,61.56H20.037L15.51,41.187Z" transform="translate(0 -31)"/><path d="M150,396.093A5.093,5.093,0,1,0,155.093,391,5.1,5.1,0,0,0,150,396.093Zm5.093-1.7a1.7,1.7,0,1,1-1.7,1.7A1.7,1.7,0,0,1,155.093,394.4Z" transform="translate(-133.022 -350.254)"/><path d="M362,396.093A5.093,5.093,0,1,0,367.093,391,5.1,5.1,0,0,0,362,396.093Zm5.093-1.7a1.7,1.7,0,1,1-1.7,1.7A1.7,1.7,0,0,1,367.093,394.4Z" transform="translate(-321.027 -350.254)"/></g></g></svg>